<?xml version="1.0" standalone="no"?>
<!DOCTYPE svg PUBLIC "-//W3C//DTD SVG 20010904//EN"
 "http://www.w3.org/TR/2001/REC-SVG-20010904/DTD/svg10.dtd">
<svg version="1.0" xmlns="http://www.w3.org/2000/svg"
 width="250.000000pt" height="200.000000pt" viewBox="0 0 250.000000 200.000000"
 preserveAspectRatio="xMidYMid meet">

<g transform="translate(0.000000,200.000000) scale(0.100000,-0.100000)"
fill="#000000" stroke="none">
<path d="M1162 1403 c-61 -30 -80 -108 -42 -170 23 -38 84 -85 155 -119 29
-14 40 -17 25 -7 -115 82 -141 169 -65 219 37 24 148 29 210 10 27 -8 51 -14
52 -12 8 8 -95 68 -141 81 -65 20 -153 19 -194 -2z"/>
<path d="M1028 1323 c-37 -40 -68 -107 -68 -148 0 -95 87 -177 265 -249 107
-43 167 -78 194 -112 30 -38 43 -93 31 -134 l-10 -33 30 28 c39 37 70 102 70
145 0 96 -91 184 -259 251 -107 44 -169 83 -205 132 -16 21 -21 43 -21 88 0
32 0 59 -1 59 0 0 -12 -12 -26 -27z"/>
<path d="M1200 893 c95 -68 121 -117 96 -178 -26 -62 -131 -84 -242 -50 -27 8
-50 15 -52 15 -2 0 10 -11 26 -25 72 -61 215 -92 296 -65 69 23 97 110 56 177
-23 38 -84 85 -155 119 -29 14 -40 17 -25 7z"/>
</g>
</svg>
